<svg width="169" height="39" viewBox="0 0 169 39" fill="none" xmlns="http://www.w3.org/2000/svg">
<path d="M132.568 37.6196H121.989C120.851 37.6196 119.815 37.406 118.883 36.979C117.951 36.5519 117.152 35.9685 116.488 35.2287C115.831 34.489 115.322 33.6196 114.963 32.6205C114.604 31.6215 114.425 30.5538 114.425 29.4175C114.425 28.2888 114.604 27.2287 114.963 26.2373C115.322 25.2382 115.831 24.3688 116.488 23.6291C117.152 22.8817 117.951 22.2945 118.883 21.8674C119.815 21.4327 120.851 21.2154 121.989 21.2154H132.568V23.5605H121.989C121.179 23.5605 120.449 23.7168 119.8 24.0295C119.158 24.3345 118.612 24.754 118.161 25.2878C117.718 25.814 117.374 26.4318 117.13 27.141C116.893 27.8503 116.774 28.6091 116.774 29.4175C116.774 30.2259 116.893 30.9885 117.13 31.7054C117.374 32.4146 117.718 33.0362 118.161 33.57C118.612 34.0962 119.158 34.5119 119.8 34.8169C120.449 35.122 121.179 35.2745 121.989 35.2745H132.568V37.6196Z" fill="white"/>
<path d="M149.711 24.7387V31.1792C149.711 32.0714 149.543 32.9103 149.207 33.6958C148.87 34.4737 148.408 35.1563 147.82 35.7435C147.239 36.3231 146.559 36.7807 145.78 37.1162C145 37.4518 144.167 37.6196 143.281 37.6196H141.986C141.1 37.6196 140.267 37.4518 139.487 37.1162C138.708 36.7731 138.024 36.3117 137.436 35.7321C136.855 35.1448 136.397 34.4623 136.061 33.6844C135.724 32.8989 135.556 32.0638 135.556 31.1792V24.7387H137.906V31.1792C137.906 31.7435 138.013 32.2773 138.227 32.7807C138.441 33.2764 138.731 33.7111 139.098 34.0848C139.472 34.4508 139.904 34.7406 140.393 34.9542C140.89 35.1677 141.421 35.2745 141.986 35.2745H143.281C143.847 35.2745 144.378 35.1677 144.874 34.9542C145.371 34.7406 145.803 34.4508 146.169 34.0848C146.536 33.7111 146.826 33.2764 147.04 32.7807C147.254 32.2773 147.361 31.7435 147.361 31.1792V24.7387H149.711Z" fill="white"/>
<path d="M161.418 37.6196H159.069V27.0495H152.857V24.7387H167.619V27.0495H161.418V37.6196Z" fill="white"/>
<path fill-rule="evenodd" clip-rule="evenodd" d="M133.264 38.3154H121.989C120.762 38.3154 119.626 38.0847 118.593 37.6115C117.577 37.146 116.7 36.5065 115.97 35.6937L115.969 35.6923L115.967 35.6908C115.247 34.88 114.695 33.9322 114.308 32.8559C113.92 31.7763 113.729 30.6285 113.729 29.4177C113.729 28.2143 113.92 27.0739 114.309 26.0016C114.695 24.9256 115.247 23.9781 115.967 23.1676L115.967 23.1672C116.697 22.3466 117.574 21.7025 118.591 21.2363C119.624 20.7549 120.761 20.52 121.989 20.52H133.264V24.2563H121.989C121.271 24.2563 120.646 24.3944 120.102 24.6564L120.101 24.6571L120.099 24.6579C119.545 24.921 119.079 25.2797 118.693 25.7363C118.311 26.1906 118.008 26.7305 117.789 27.3647C117.578 27.9965 117.47 28.6794 117.47 29.4177C117.47 30.1556 117.578 30.8428 117.789 31.4833C118.008 32.116 118.31 32.6597 118.693 33.122C119.078 33.57 119.544 33.925 120.098 34.1884C120.643 34.4442 121.269 34.5791 121.989 34.5791H133.264V38.3154ZM118.161 33.5703C117.718 33.0364 117.374 32.4149 117.13 31.7056C116.893 30.9887 116.774 30.2261 116.774 29.4177C116.774 28.6093 116.893 27.8505 117.13 27.1413C117.374 26.432 117.718 25.8143 118.161 25.2881C118.612 24.7542 119.158 24.3348 119.8 24.0297C120.45 23.717 121.179 23.5607 121.989 23.5607H132.568V21.2156H121.989C120.851 21.2156 119.815 21.433 118.883 21.8677C117.951 22.2947 117.153 22.882 116.488 23.6293C115.831 24.3691 115.323 25.2385 114.963 26.2375C114.604 27.229 114.425 28.289 114.425 29.4177C114.425 30.554 114.604 31.6217 114.963 32.6208C115.323 33.6198 115.831 34.4892 116.488 35.229C117.153 35.9687 117.951 36.5522 118.883 36.9792C119.815 37.4063 120.851 37.6198 121.989 37.6198H132.568V35.2747H121.989C121.179 35.2747 120.45 35.1222 119.8 34.8172C119.158 34.5121 118.612 34.0965 118.161 33.5703ZM150.407 24.0434V31.1794C150.407 32.1615 150.222 33.0938 149.847 33.9696L149.846 33.9708L149.846 33.9719C149.475 34.8289 148.964 35.5853 148.312 36.2359C147.667 36.8798 146.913 37.3862 146.055 37.7553C145.185 38.13 144.258 38.3154 143.281 38.3154H141.986C141.009 38.3154 140.082 38.13 139.212 37.7553L139.209 37.7542L139.207 37.753C138.353 37.3769 137.598 36.8684 136.947 36.2277L136.944 36.2245L136.941 36.2213C136.298 35.5709 135.791 34.8156 135.422 33.9605L135.421 33.9593L135.421 33.9582C135.046 33.0831 134.86 32.1547 134.86 31.1794V24.0434H138.602V31.1794C138.602 31.6526 138.691 32.093 138.867 32.507C139.047 32.9236 139.288 33.2838 139.59 33.5928C139.901 33.896 140.26 34.1369 140.67 34.3163C141.075 34.4902 141.512 34.5791 141.986 34.5791H143.281C143.756 34.5791 144.193 34.4899 144.599 34.3155C145.017 34.1357 145.374 33.8954 145.675 33.5953C145.978 33.2857 146.22 32.9247 146.401 32.507C146.576 32.093 146.665 31.6526 146.665 31.1794V24.0434H150.407ZM147.04 32.7809C146.827 33.2766 146.536 33.7113 146.169 34.085C145.803 34.4511 145.371 34.7409 144.874 34.9544C144.378 35.168 143.847 35.2747 143.281 35.2747H141.986C141.421 35.2747 140.89 35.168 140.393 34.9544C139.904 34.7409 139.472 34.4511 139.098 34.085C138.731 33.7113 138.441 33.2766 138.227 32.7809C138.013 32.2776 137.906 31.7438 137.906 31.1794V24.739H135.556V31.1794C135.556 32.0641 135.724 32.8991 136.061 33.6847C136.397 34.4625 136.855 35.1451 137.436 35.7323C138.024 36.3119 138.708 36.7733 139.487 37.1165C140.267 37.4521 141.1 37.6198 141.986 37.6198H143.281C144.168 37.6198 145 37.4521 145.78 37.1165C146.559 36.7809 147.239 36.3234 147.82 35.7438C148.408 35.1565 148.87 34.474 149.207 33.6961C149.543 32.9106 149.711 32.0717 149.711 31.1794V24.739H147.361V31.1794C147.361 31.7438 147.254 32.2776 147.04 32.7809ZM162.114 38.3154H158.373V27.7453H152.161V24.0434H168.315V27.7453H162.114V38.3154ZM159.069 27.0498V37.6198H161.418V27.0498H167.619V24.739H152.857V27.0498H159.069Z" fill="white"/>
<path fill-rule="evenodd" clip-rule="evenodd" d="M27.9318 3.5572C27.9323 3.55824 27.9328 3.55928 27.9333 3.56033C28.1818 4.0885 28.4231 4.62895 28.6572 5.18345C29.2893 4.54648 30.1411 3.71123 30.7877 3.09006C31.3928 2.53382 32.2104 1.8021 32.8281 1.25813C31.8232 0.994926 30.4725 0.686096 29.455 0.47202C28.4285 0.305322 27.0544 0.121076 26.0225 0C26.2831 0.421971 26.5436 0.866655 26.8024 1.33754C12.5759 5.33171 -1.89844 16.8983 0.759568 25.8295C0.901459 26.1921 1.1027 26.6268 1.28958 27.0305C1.3731 27.2109 1.45375 27.3851 1.52495 27.5439L2.11126 28.5841C2.18445 28.7279 2.26394 28.869 2.34975 29.0073L2.11126 28.5841C-0.13348 24.1753 3.53812 17.2542 12.0367 11.1741C16.9131 7.68597 22.5493 5.06632 27.9318 3.5572Z" fill="white"/>
<path fill-rule="evenodd" clip-rule="evenodd" d="M21.5213 12.7836C19.3911 13.8626 17.315 15.1066 15.3702 16.4979C6.0428 23.1714 2.93324 30.9302 7.6936 34.6971L6.9961 34.1837C6.90609 34.1065 6.81053 34.0249 6.71153 33.9404C6.24602 33.5431 5.70423 33.0806 5.30326 32.6957C1.14321 28.623 4.49647 20.897 13.8359 14.2168C15.8616 12.7675 18.0224 11.4727 20.2426 10.3498C20.2423 10.3491 20.2419 10.3484 20.2416 10.3478L20.235 10.3352C19.9527 9.79372 19.6722 9.25572 19.3988 8.72464C20.4343 8.7457 21.8155 8.79307 22.8493 8.84922C23.8668 8.94398 25.221 9.09138 26.2331 9.22474C25.6226 9.98453 24.8194 11.0075 24.2323 11.7849C23.6741 12.5798 22.9429 13.6484 22.4116 14.4608C22.1189 13.9127 21.8279 13.3629 21.5386 12.8164L21.5213 12.7836ZM7.6936 34.6971C7.82103 34.7979 7.9541 34.8959 8.09284 34.9909L7.6936 34.6971Z" fill="white"/>
<path d="M32.2648 37.6196H29.9153V32.9294H17.3256V30.5957H29.9153V23.5605H21.4912C20.6889 23.5605 19.9325 23.7168 19.2219 24.0295C18.5113 24.3345 17.8924 24.754 17.3651 25.2878C16.8379 25.814 16.4177 26.4318 16.1044 27.141C15.7988 27.8503 15.646 28.6091 15.646 29.4175V37.6196H13.2964V29.4175C13.2964 28.6625 13.3919 27.938 13.5829 27.244C13.7816 26.5423 14.0567 25.8903 14.4081 25.2878C14.7673 24.6777 15.1951 24.1248 15.6918 23.6291C16.1961 23.1258 16.7501 22.6949 17.3537 22.3364C17.965 21.978 18.6182 21.7034 19.3136 21.5128C20.0089 21.3145 20.7348 21.2154 21.4912 21.2154H32.2648V37.6196Z" fill="white"/>
<path d="M50.5966 37.6196H47.3989L43.7313 34.1305H39.4969V31.8083H45.4734C45.8019 31.8083 46.1114 31.7435 46.4017 31.6139C46.6921 31.4842 46.9443 31.3126 47.1582 31.0991C47.3721 30.8779 47.5402 30.6224 47.6625 30.3326C47.7847 30.0428 47.8459 29.7378 47.8459 29.4175C47.8459 29.0895 47.7847 28.7845 47.6625 28.5023C47.5402 28.2125 47.3721 27.9608 47.1582 27.7473C46.9443 27.5338 46.6921 27.366 46.4017 27.244C46.1114 27.1143 45.8019 27.0495 45.4734 27.0495H37.7485V37.6196H35.3989V24.7387H45.4734C46.1229 24.7387 46.7341 24.8646 47.3072 25.1162C47.8803 25.3603 48.3769 25.6958 48.7972 26.1229C49.225 26.5423 49.5612 27.0381 49.8058 27.61C50.0503 28.1744 50.1725 28.7769 50.1725 29.4175C50.1725 29.9437 50.0885 30.4508 49.9204 30.9389C49.7523 31.4194 49.5154 31.8617 49.2098 32.2659C48.9118 32.6625 48.5565 33.0057 48.1439 33.2955C47.7313 33.5853 47.2804 33.7988 46.7914 33.9361L50.5966 37.6196Z" fill="white"/>
<path d="M68.5033 37.6196H65.3056L61.638 34.1305H57.4036V31.8083H63.3801C63.7087 31.8083 64.0181 31.7435 64.3085 31.6139C64.5988 31.4842 64.851 31.3126 65.0649 31.0991C65.2789 30.8779 65.447 30.6224 65.5692 30.3326C65.6915 30.0428 65.7526 29.7378 65.7526 29.4175C65.7526 29.0895 65.6915 28.7845 65.5692 28.5023C65.447 28.2125 65.2789 27.9608 65.0649 27.7473C64.851 27.5338 64.5988 27.366 64.3085 27.244C64.0181 27.1143 63.7087 27.0495 63.3801 27.0495H55.6552V37.6196H53.3056V24.7387H63.3801C64.0296 24.7387 64.6409 24.8646 65.2139 25.1162C65.787 25.3603 66.2836 25.6958 66.7039 26.1229C67.1318 26.5423 67.468 27.0381 67.7125 27.61C67.957 28.1744 68.0792 28.7769 68.0792 29.4175C68.0792 29.9437 67.9952 30.4508 67.8271 30.9389C67.659 31.4194 67.4221 31.8617 67.1165 32.2659C66.8185 32.6625 66.4632 33.0057 66.0506 33.2955C65.638 33.5853 65.1872 33.7988 64.6982 33.9361L68.5033 37.6196Z" fill="white"/>
<path d="M87.1291 31.1563C87.1291 32.0486 86.9877 32.8875 86.705 33.673C86.4223 34.4508 86.0173 35.1334 85.4901 35.7206C84.9705 36.3079 84.344 36.7731 83.6104 37.1162C82.8846 37.4518 82.0746 37.6196 81.1806 37.6196H77.1004C76.2064 37.6196 75.3927 37.4518 74.6592 37.1162C73.9256 36.7731 73.2953 36.3079 72.7681 35.7206C72.2485 35.1334 71.8473 34.4508 71.5646 33.673C71.2819 32.8875 71.1406 32.0486 71.1406 31.1563C71.1406 30.2716 71.2819 29.4404 71.5646 28.6625C71.8473 27.8846 72.2485 27.2058 72.7681 26.6262C73.2953 26.039 73.9256 25.5776 74.6592 25.2421C75.3927 24.9065 76.2064 24.7387 77.1004 24.7387H81.1806C82.0746 24.7387 82.8846 24.9065 83.6104 25.2421C84.344 25.5776 84.9705 26.039 85.4901 26.6262C86.0173 27.2058 86.4223 27.8846 86.705 28.6625C86.9877 29.4404 87.1291 30.2716 87.1291 31.1563ZM84.7795 31.1563C84.7795 30.5919 84.6954 30.0619 84.5273 29.5662C84.3669 29.0628 84.13 28.6281 83.8167 28.2621C83.5111 27.8884 83.1367 27.5948 82.6935 27.3812C82.2504 27.1601 81.7461 27.0495 81.1806 27.0495H77.1004C76.535 27.0495 76.0269 27.1601 75.5761 27.3812C75.1329 27.5948 74.7547 27.8884 74.4414 28.2621C74.1358 28.6281 73.8989 29.0628 73.7308 29.5662C73.5703 30.0619 73.4901 30.5919 73.4901 31.1563C73.4901 31.7206 73.5703 32.2545 73.7308 32.7578C73.8989 33.2535 74.1358 33.6882 74.4414 34.0619C74.7547 34.4356 75.1329 34.733 75.5761 34.9542C76.0269 35.1677 76.535 35.2745 77.1004 35.2745H81.1806C81.7461 35.2745 82.2504 35.1677 82.6935 34.9542C83.1367 34.733 83.5111 34.4356 83.8167 34.0619C84.13 33.6882 84.3669 33.2535 84.5273 32.7578C84.6954 32.2545 84.7795 31.7206 84.7795 31.1563Z" fill="white"/>
<path d="M106.851 32.9065C106.851 33.5624 106.725 34.1763 106.473 34.7483C106.228 35.3202 105.892 35.8198 105.464 36.2468C105.036 36.6663 104.532 37.0019 103.951 37.2535C103.378 37.4976 102.763 37.6196 102.106 37.6196C101.411 37.6196 100.761 37.4747 100.157 37.1849C99.5615 36.8875 99.0457 36.4871 98.6102 35.9837C98.1747 36.4871 97.6436 36.8875 97.0171 37.1849C96.3905 37.4747 95.7181 37.6196 94.9999 37.6196C94.3581 37.6196 93.7506 37.4976 93.1776 37.2535C92.6045 37.0019 92.1002 36.6663 91.6647 36.2468C91.2368 35.8198 90.8968 35.3202 90.6446 34.7483C90.4001 34.1763 90.2778 33.5624 90.2778 32.9065V24.7387H92.6274V32.9065C92.6274 33.2421 92.6885 33.5548 92.8108 33.8446C92.9331 34.1344 93.1011 34.386 93.3151 34.5996C93.529 34.8055 93.7812 34.9694 94.0715 35.0915C94.3619 35.2135 94.6713 35.2745 94.9999 35.2745C95.3361 35.2745 95.6494 35.2135 95.9397 35.0915C96.2301 34.9694 96.4822 34.8055 96.6962 34.5996C96.9178 34.386 97.0897 34.1344 97.2119 33.8446C97.3342 33.5548 97.3953 33.2421 97.3953 32.9065V24.7387H99.7678V32.632C99.7678 32.998 99.8289 33.345 99.9512 33.673C100.073 33.9933 100.238 34.2716 100.444 34.508C100.658 34.7445 100.906 34.9313 101.189 35.0686C101.472 35.2059 101.777 35.2745 102.106 35.2745C102.442 35.2745 102.755 35.2135 103.046 35.0915C103.336 34.9694 103.588 34.8055 103.802 34.5996C104.024 34.386 104.196 34.1344 104.318 33.8446C104.44 33.5548 104.501 33.2421 104.501 32.9065V24.7387H106.851V32.9065Z" fill="white"/>
<path fill-rule="evenodd" clip-rule="evenodd" d="M32.9608 38.3154H29.2191V33.6252H16.6294V29.9004H29.2191V24.2563H21.4911C20.7821 24.2563 20.1215 24.3939 19.5023 24.6663L19.4994 24.6676L19.4965 24.6688C18.866 24.9395 18.3226 25.3087 17.8605 25.7767L17.8587 25.7785L17.857 25.7802C17.3939 26.2424 17.0222 26.7867 16.7424 27.4193C16.4768 28.0367 16.3419 28.7005 16.3419 29.4177V38.3154H12.6002V29.4177C12.6002 28.6034 12.7033 27.8167 12.9117 27.0597L12.9124 27.0573L12.913 27.0548C13.1269 26.2995 13.4244 25.593 13.8067 24.9377L13.8074 24.9366L13.8081 24.9354C14.1969 24.2749 14.661 23.675 15.1998 23.1372C15.7443 22.5937 16.344 22.1271 16.998 21.7387L16.9997 21.7377L17.0013 21.7367C17.6652 21.3475 18.374 21.0497 19.1259 20.8432C19.8851 20.627 20.6743 20.52 21.4911 20.52H32.9608V38.3154ZM19.3135 21.513C18.6182 21.7037 17.9649 21.9782 17.3536 22.3367C16.75 22.6951 16.196 23.126 15.6917 23.6293C15.1951 24.1251 14.7672 24.678 14.408 25.2881C14.0566 25.8906 13.7815 26.5426 13.5828 27.2442C13.3918 27.9382 13.2963 28.6627 13.2963 29.4177V37.6198H15.6459V29.4177C15.6459 28.6093 15.7987 27.8505 16.1043 27.1413C16.4176 26.432 16.8378 25.8143 17.3651 25.2881C17.8923 24.7542 18.5112 24.3348 19.2218 24.0297C19.9324 23.717 20.6888 23.5607 21.4911 23.5607H29.9152V30.596H17.3255V32.9296H29.9152V37.6198H32.2647V21.2156H21.4911C20.7347 21.2156 20.0088 21.3148 19.3135 21.513ZM52.3155 38.3154H47.1204L43.4528 34.8264H38.8007V31.113H45.4733C45.7073 31.113 45.9197 31.0674 46.1177 30.979C46.3326 30.8831 46.5119 30.7601 46.6619 30.6115C46.8127 30.4545 46.9322 30.2731 47.021 30.0627C47.1065 29.86 47.1497 29.647 47.1497 29.4177C47.1497 29.1784 47.1056 28.9682 47.0236 28.7789L47.0223 28.7759L47.021 28.7728C46.9323 28.5625 46.8138 28.387 46.6662 28.2397C46.5186 28.0924 46.3427 27.9741 46.1318 27.8854L46.1247 27.8824L46.1177 27.8793C45.9197 27.7909 45.7073 27.7453 45.4733 27.7453H38.4445V38.3154H34.7027V24.0434H45.4733C46.2142 24.0434 46.92 24.1873 47.5836 24.4781C48.2336 24.7554 48.8043 25.1396 49.289 25.631C49.7818 26.1152 50.167 26.6855 50.445 27.3352C50.7285 27.99 50.8685 28.6866 50.8685 29.4177C50.8685 30.0195 50.7721 30.6032 50.5785 31.1655L50.5779 31.1672L50.5774 31.1688C50.3856 31.7168 50.1147 32.223 49.7655 32.6849C49.4231 33.1403 49.015 33.534 48.544 33.8648C48.3813 33.9791 48.2134 34.0831 48.0404 34.177L52.3155 38.3154ZM46.7913 33.9363C47.0416 33.8661 47.2819 33.7758 47.5121 33.6656C47.7318 33.5605 47.9423 33.4372 48.1438 33.2957C48.5564 33.0059 48.9117 32.6627 49.2097 32.2662C49.5153 31.862 49.7522 31.4196 49.9203 30.9392C50.0884 30.4511 50.1724 29.9439 50.1724 29.4177C50.1724 28.7771 50.0502 28.1746 49.8057 27.6103C49.5612 27.0383 49.225 26.5426 48.7971 26.1232C48.3768 25.6961 47.8802 25.3605 47.3071 25.1165C46.734 24.8648 46.1228 24.739 45.4733 24.739H35.3988V37.6198H37.7484V27.0498H45.4733C45.8019 27.0498 46.1113 27.1146 46.4017 27.2442C46.692 27.3662 46.9442 27.534 47.1581 27.7476C47.3721 27.9611 47.5401 28.2128 47.6624 28.5026C47.7847 28.7847 47.8458 29.0898 47.8458 29.4177C47.8458 29.738 47.7847 30.0431 47.6624 30.3329C47.5401 30.6227 47.3721 30.8782 47.1581 31.0993C46.9442 31.3129 46.692 31.4845 46.4017 31.6141C46.1113 31.7438 45.8019 31.8086 45.4733 31.8086H39.4968V34.1308H43.7312L47.3988 37.6198H50.5965L46.7913 33.9363ZM70.2222 38.3154H65.0272L61.3596 34.8264H56.7075V31.113H63.38C63.6141 31.113 63.8264 31.0674 64.0244 30.979C64.2393 30.8831 64.4187 30.7601 64.5687 30.6114C64.7195 30.4545 64.8389 30.2731 64.9277 30.0627C65.0132 29.86 65.0564 29.647 65.0564 29.4177C65.0564 29.1784 65.0123 28.9682 64.9304 28.7789L64.929 28.7759L64.9277 28.7728C64.839 28.5625 64.7205 28.387 64.5729 28.2397C64.4253 28.0924 64.2495 27.9741 64.0386 27.8854L64.0315 27.8824L64.0244 27.8793C63.8264 27.7909 63.6141 27.7453 63.38 27.7453H56.3512V38.3154H52.6095V24.0434H63.38C64.1209 24.0434 64.8267 24.1872 65.4903 24.4781C66.1403 24.7554 66.711 25.1396 67.1958 25.631C67.6888 26.1155 68.0742 26.6861 68.3522 27.3362C68.6354 27.9908 68.7752 28.687 68.7752 29.4177C68.7752 30.0195 68.6789 30.6032 68.4852 31.1655L68.4846 31.1672L68.4841 31.1688C68.2924 31.7165 68.0217 32.2225 67.6727 32.6842C67.3302 33.1399 66.922 33.5338 66.4508 33.8648C66.2881 33.9791 66.1201 34.0831 65.9471 34.177L70.2222 38.3154ZM64.6981 33.9363C64.9484 33.8661 65.1886 33.7758 65.4189 33.6656C65.6385 33.5605 65.8491 33.4372 66.0505 33.2957C66.4631 33.0059 66.8184 32.6627 67.1164 32.2662C67.422 31.862 67.6589 31.4196 67.827 30.9392C67.9951 30.4511 68.0792 29.9439 68.0792 29.4177C68.0792 28.7771 67.9569 28.1746 67.7124 27.6103C67.4679 27.0383 67.1317 26.5426 66.7038 26.1232C66.2836 25.6961 65.7869 25.3605 65.2138 25.1165C64.6408 24.8648 64.0295 24.739 63.38 24.739H53.3056V37.6198H55.6551V27.0498H63.38C63.7086 27.0498 64.018 27.1146 64.3084 27.2442C64.5987 27.3662 64.8509 27.534 65.0648 27.7476C65.2788 27.9611 65.4469 28.2128 65.5691 28.5026C65.6914 28.7847 65.7525 29.0898 65.7525 29.4177C65.7525 29.738 65.6914 30.0431 65.5691 30.3329C65.4469 30.6227 65.2788 30.8782 65.0648 31.0993C64.8509 31.3129 64.5987 31.4845 64.3084 31.6141C64.018 31.7438 63.7086 31.8086 63.38 31.8086H57.4035V34.1308H61.6379L65.3055 37.6198H68.5032L64.6981 33.9363ZM87.3599 33.9086L87.3592 33.9107C87.0479 34.7673 86.5986 35.5272 86.0098 36.1835C85.4254 36.8435 84.7216 37.3646 83.9055 37.7465L83.904 37.7471L83.9026 37.7478C83.0749 38.1305 82.1635 38.3154 81.1806 38.3154H77.1003C76.1173 38.3154 75.2032 38.1304 74.3693 37.749L74.3666 37.7477L74.3639 37.7465C73.548 37.3647 72.8412 36.844 72.2499 36.1854L72.2482 36.1835L72.2465 36.1816C71.6658 35.5254 71.2211 34.766 70.9103 33.9107L70.9095 33.9086C70.5978 33.0425 70.4444 32.1235 70.4444 31.1565C70.4444 30.1965 70.598 29.2844 70.9103 28.4253C71.2214 27.5692 71.6669 26.8123 72.2495 26.1624L72.2499 26.162C72.8423 25.5021 73.5509 24.9842 74.3693 24.6098C75.2032 24.2284 76.1173 24.0434 77.1003 24.0434H81.1806C82.1631 24.0434 83.0742 24.2282 83.9016 24.6106C84.7188 24.9846 85.4234 25.5021 86.0082 26.1621C86.5983 26.8117 87.0478 27.5687 87.3592 28.4253C87.6714 29.2844 87.825 30.1965 87.825 31.1565C87.825 32.1235 87.6716 33.0425 87.3599 33.9086ZM85.49 26.6265C84.9704 26.0393 84.3439 25.5779 83.6103 25.2423C82.8845 24.9068 82.0745 24.739 81.1806 24.739H77.1003C76.2064 24.739 75.3926 24.9068 74.6591 25.2423C73.9256 25.5779 73.2952 26.0393 72.768 26.6265C72.2484 27.2061 71.8472 27.8848 71.5645 28.6627C71.2818 29.4406 71.1405 30.2719 71.1405 31.1565C71.1405 32.0488 71.2818 32.8877 71.5645 33.6732C71.8472 34.4511 72.2484 35.1337 72.768 35.7209C73.2952 36.3081 73.9256 36.7733 74.6591 37.1165C75.3926 37.4521 76.2064 37.6198 77.1003 37.6198H81.1806C82.0745 37.6198 82.8845 37.4521 83.6103 37.1165C84.3439 36.7733 84.9704 36.3081 85.49 35.7209C86.0172 35.1337 86.4222 34.4511 86.7049 33.6732C86.9876 32.8877 87.129 32.0488 87.129 31.1565C87.129 30.2719 86.9876 29.4406 86.7049 28.6627C86.4222 27.8848 86.0172 27.2061 85.49 26.6265ZM83.866 29.7837L83.864 29.7776C83.729 29.3541 83.5349 29.0034 83.2876 28.7144L83.2826 28.7085L83.2777 28.7025C83.0376 28.409 82.7445 28.1783 82.3911 28.0081L82.3868 28.006L82.3825 28.0038C82.0487 27.8373 81.6534 27.7453 81.1806 27.7453H77.1003C76.6278 27.7453 76.2267 27.8372 75.8827 28.0059L75.8805 28.007L75.8783 28.0081C75.5233 28.1791 75.2242 28.4117 74.9749 28.709C74.7318 29.0005 74.5354 29.3552 74.392 29.7837C74.2564 30.2038 74.1861 30.6601 74.1861 31.1565C74.1861 31.6518 74.256 32.112 74.392 32.5409C74.5349 32.9601 74.7314 33.3168 74.9775 33.6186C75.2264 33.9147 75.5255 34.1507 75.8805 34.3289C76.225 34.4908 76.6272 34.5791 77.1003 34.5791H81.1806C81.6549 34.5791 82.0521 34.4904 82.3869 34.3299C82.7424 34.1518 83.0369 33.9163 83.2777 33.622L83.2804 33.6187L83.2831 33.6155C83.535 33.3149 83.7301 32.9605 83.865 32.544L83.866 32.5409L83.867 32.5379C84.0099 32.1099 84.0833 31.6508 84.0833 31.1565C84.0833 30.6622 84.0099 30.2081 83.868 29.7897L83.866 29.7837ZM82.6934 34.9544C82.2503 35.168 81.746 35.2747 81.1806 35.2747H77.1003C76.5349 35.2747 76.0268 35.168 75.576 34.9544C75.1328 34.7333 74.7546 34.4358 74.4413 34.0622C74.1357 33.6885 73.8988 33.2538 73.7307 32.7581C73.5703 32.2547 73.49 31.7209 73.49 31.1565C73.49 30.5922 73.5703 30.0622 73.7307 29.5664C73.8988 29.0631 74.1357 28.6284 74.4413 28.2623C74.7546 27.8886 75.1328 27.595 75.576 27.3815C76.0268 27.1603 76.5349 27.0498 77.1003 27.0498H81.1806C81.746 27.0498 82.2503 27.1603 82.6934 27.3815C83.1366 27.595 83.511 27.8886 83.8167 28.2623C84.1299 28.6284 84.3668 29.0631 84.5273 29.5664C84.6954 30.0622 84.7794 30.5922 84.7794 31.1565C84.7794 31.7209 84.6954 32.2547 84.5273 32.7581C84.3668 33.2538 84.1299 33.6885 83.8167 34.0622C83.511 34.4358 83.1366 34.7333 82.6934 34.9544ZM105.954 36.7415L105.951 36.7437C105.459 37.2261 104.883 37.6083 104.228 37.8919L104.226 37.8928L104.224 37.8937C103.56 38.1765 102.851 38.3154 102.106 38.3154C101.31 38.3154 100.557 38.1488 99.856 37.8121L99.8512 37.8098L99.8464 37.8074C99.3933 37.5813 98.9799 37.3021 98.6076 36.9708C98.2238 37.3063 97.7923 37.5872 97.3157 37.8134L97.3125 37.8149L97.3094 37.8164C96.5875 38.1503 95.8148 38.3154 94.9998 38.3154C94.2671 38.3154 93.5666 38.1756 92.9046 37.8937L92.901 37.8922L92.8974 37.8906C92.2519 37.6071 91.6782 37.2263 91.1815 36.748L91.1771 36.7436L91.1727 36.7393C90.6816 36.2491 90.2933 35.6771 90.0075 35.029L90.0059 35.0254L90.0044 35.0218C89.721 34.3588 89.5817 33.6514 89.5817 32.9068V24.0434H93.3234V32.9068C93.3234 33.1558 93.3683 33.3759 93.4521 33.5746C93.5399 33.7828 93.6569 33.9568 93.8024 34.1032C93.95 34.2441 94.1274 34.3606 94.3413 34.4505C94.5425 34.5351 94.7599 34.5791 94.9998 34.5791C95.2497 34.5791 95.4705 34.5343 95.6698 34.4505C95.8859 34.3597 96.0647 34.2417 96.2132 34.0988C96.3653 33.9522 96.484 33.7795 96.5704 33.5746C96.6542 33.3759 96.6991 33.1558 96.6991 32.9068V24.0434H100.464V32.6322C100.464 32.9183 100.511 33.1819 100.602 33.4278C100.697 33.6752 100.819 33.8787 100.964 34.0464C101.118 34.2154 101.294 34.3463 101.493 34.4432C101.677 34.5323 101.878 34.5791 102.106 34.5791C102.356 34.5791 102.577 34.5343 102.776 34.4505C102.992 34.3597 103.171 34.2417 103.319 34.0988C103.471 33.9522 103.59 33.7795 103.676 33.5746C103.76 33.3759 103.805 33.1558 103.805 32.9068V24.0434H107.547V32.9068C107.547 33.653 107.403 34.3618 107.111 35.0254C106.833 35.6752 106.448 36.2484 105.956 36.7393L105.954 36.7415ZM106.473 34.7485C106.725 34.1766 106.851 33.5626 106.851 32.9068V24.739H104.501V32.9068C104.501 33.2423 104.44 33.555 104.318 33.8448C104.196 34.1346 104.024 34.3863 103.802 34.5998C103.588 34.8057 103.336 34.9697 103.046 35.0917C102.755 35.2137 102.442 35.2747 102.106 35.2747C101.777 35.2747 101.472 35.2061 101.189 35.0688C100.906 34.9316 100.658 34.7447 100.444 34.5083C100.238 34.2719 100.073 33.9935 99.9511 33.6732C99.8288 33.3453 99.7677 32.9983 99.7677 32.6322V24.739H97.3952V32.9068C97.3952 33.2423 97.3341 33.555 97.2118 33.8448C97.0896 34.1346 96.9177 34.3863 96.6961 34.5998C96.4821 34.8057 96.23 34.9697 95.9396 35.0917C95.6493 35.2137 95.336 35.2747 94.9998 35.2747C94.6713 35.2747 94.3618 35.2137 94.0714 35.0917C93.7811 34.9697 93.5289 34.8057 93.315 34.5998C93.1011 34.3863 92.933 34.1346 92.8107 33.8448C92.6885 33.555 92.6273 33.2423 92.6273 32.9068V24.739H90.2778V32.9068C90.2778 33.5626 90.4 34.1766 90.6445 34.7485C90.8967 35.3205 91.2367 35.82 91.6646 36.2471C92.1001 36.6665 92.6044 37.0021 93.1775 37.2538C93.7505 37.4978 94.358 37.6198 94.9998 37.6198C95.718 37.6198 96.3904 37.4749 97.017 37.1851C97.4235 36.9921 97.7899 36.7558 98.116 36.4761C98.2925 36.3248 98.4572 36.1607 98.6101 35.984C98.764 36.1618 98.9279 36.3268 99.1018 36.4789C99.4201 36.7574 99.772 36.9928 100.157 37.1851C100.761 37.4749 101.41 37.6198 102.106 37.6198C102.763 37.6198 103.378 37.4978 103.951 37.2538C104.532 37.0021 105.036 36.6665 105.464 36.2471C105.892 35.82 106.228 35.3205 106.473 34.7485Z" fill="white"/>
<path d="M73.3082 12.3192H75.2983V13.508H73.3082V12.3192ZM75.0537 9.47504H76.5324V16.4077H75.0537V9.47504ZM72.3299 15.63H73.5862V15.8744C73.5862 17.7631 72.2076 19.2963 69.6839 19.7184L69.1169 18.563C71.2959 18.2297 72.3299 17.0409 72.3299 15.8744V15.63ZM72.5411 15.63H73.7974V15.8744C73.7974 17.0298 74.8202 18.2186 77.0104 18.5519L76.4212 19.7184C73.9086 19.2963 72.5411 17.7631 72.5411 15.8744V15.63ZM71.7851 10.1527H73.3193C73.3193 13.0413 72.0408 14.9745 68.6499 16.0632L68.0607 14.9189C70.8957 14.0301 71.7851 12.6303 71.7851 10.7527V10.1527ZM68.6054 10.1527H72.7412V11.3304H68.6054V10.1527ZM71.963 12.1303V13.1413L68.2941 13.408L68.0829 12.2636L71.963 12.1303Z" fill="white"/>
<path d="M57.406 15.074H58.8846V17.8403H57.406V15.074ZM60.6412 15.0851H62.1087V17.8514H60.6412V15.0851ZM55.1268 17.4404H64.4435V18.6403H55.1268V17.4404ZM55.8384 10.2856H63.6763V11.4632H55.8384V10.2856ZM55.8828 14.3518H63.643V15.5184H55.8828V14.3518ZM57.2392 11.2632H58.7178V14.5185H57.2392V11.2632ZM60.808 11.2632H62.2755V14.5185H60.808V11.2632Z" fill="white"/>
<path d="M47.1675 9.83056H48.3683V10.486C48.3683 12.4414 47.4566 14.1301 45.4665 14.7523L44.755 13.5746C46.456 13.0636 47.1675 11.8081 47.1675 10.486V9.83056ZM47.4677 9.83056H48.6573V10.4527C48.6573 11.7081 49.3466 12.8747 50.992 13.3524L50.2471 14.4967C48.3349 13.9079 47.4677 12.3303 47.4677 10.4527V9.83056ZM51.5146 9.47504H52.9932V14.7523H51.5146V9.47504ZM52.3929 11.4748H54.3496V12.6858H52.3929V11.4748ZM46.1892 15.1522H52.9932V17.9297H47.679V19.1852H46.2114V16.8632H51.5368V16.2854H46.1892V15.1522ZM46.2114 18.5519H53.2934V19.6962H46.2114V18.5519Z" fill="white"/>
<path d="M37.0399 15.5631H38.5186V17.2296H37.0399V15.5631ZM41.3647 9.47479H42.8545V19.7626H41.3647V9.47479ZM42.3319 13.6521H44.1441V14.8742H42.3319V13.6521ZM34.7274 18.0517L34.5496 16.8629C36.3284 16.8629 38.7743 16.8518 40.8533 16.563L40.9645 17.6295C38.7965 18.0517 36.4618 18.0517 34.7274 18.0517ZM34.7386 10.608H40.7977V11.7634H34.7386V10.608ZM37.7848 12.1745C39.2523 12.1745 40.2974 12.9522 40.2974 14.0965C40.2974 15.252 39.2523 16.0297 37.7848 16.0297C36.3062 16.0297 35.2722 15.252 35.2722 14.0965C35.2722 12.9522 36.3062 12.1745 37.7848 12.1745ZM37.7848 13.2855C37.1066 13.2855 36.673 13.5744 36.673 14.0965C36.673 14.6298 37.1066 14.9187 37.7848 14.9187C38.4519 14.9187 38.8966 14.6298 38.8966 14.0965C38.8966 13.5744 38.4519 13.2855 37.7848 13.2855ZM37.0399 9.53034H38.5186V11.4746H37.0399V9.53034Z" fill="white"/>
</svg>
