<svg width="159" height="37" viewBox="0 0 159 37" fill="none" xmlns="http://www.w3.org/2000/svg">
<path d="M125.142 35.6559H115.123C114.045 35.6559 113.064 35.4535 112.181 35.0487C111.298 34.6439 110.542 34.0909 109.912 33.3898C109.29 32.6887 108.809 31.8646 108.468 30.9177C108.128 29.9708 107.958 28.9589 107.958 27.8819C107.958 26.8121 108.128 25.8074 108.468 24.8677C108.809 23.9208 109.29 23.0968 109.912 22.3956C110.542 21.6873 111.298 21.1307 112.181 20.7259C113.064 20.3139 114.045 20.1079 115.123 20.1079H125.142V22.3306H115.123C114.356 22.3306 113.665 22.4788 113.049 22.7751C112.442 23.0643 111.924 23.4618 111.497 23.9678C111.077 24.4665 110.752 25.052 110.52 25.7243C110.296 26.3965 110.184 27.1157 110.184 27.8819C110.184 28.6481 110.296 29.3709 110.52 30.0504C110.752 30.7226 111.077 31.3117 111.497 31.8177C111.924 32.3164 112.442 32.7104 113.049 32.9995C113.665 33.2886 114.356 33.4332 115.123 33.4332H125.142V35.6559Z" fill="#F92424"/>
<path d="M141.379 23.4474V29.5516C141.379 30.3973 141.22 31.1924 140.902 31.9369C140.583 32.6742 140.145 33.3211 139.588 33.8777C139.038 34.4271 138.394 34.8608 137.656 35.1788C136.918 35.4968 136.129 35.6559 135.289 35.6559H134.063C133.223 35.6559 132.434 35.4968 131.696 35.1788C130.958 34.8535 130.31 34.4162 129.753 33.8669C129.203 33.3103 128.769 32.6634 128.451 31.9261C128.132 31.1816 127.973 30.3901 127.973 29.5516V23.4474H130.198V29.5516C130.198 30.0865 130.3 30.5925 130.502 31.0695C130.705 31.5394 130.98 31.9514 131.327 32.3056C131.682 32.6525 132.091 32.9272 132.554 33.1296C133.024 33.332 133.527 33.4332 134.063 33.4332H135.289C135.825 33.4332 136.328 33.332 136.798 33.1296C137.269 32.9272 137.678 32.6525 138.025 32.3056C138.372 31.9514 138.647 31.5394 138.85 31.0695C139.053 30.5925 139.154 30.0865 139.154 29.5516V23.4474H141.379Z" fill="#F92424"/>
<path d="M152.468 35.6559H150.243V25.6375H144.359V23.4474H158.341V25.6375H152.468V35.6559Z" fill="#F92424"/>
<path fill-rule="evenodd" clip-rule="evenodd" d="M125.802 36.3153H115.123C113.96 36.3153 112.884 36.0966 111.906 35.6481C110.944 35.2069 110.113 34.6008 109.422 33.8304L109.42 33.829L109.419 33.8276C108.737 33.0591 108.214 32.1609 107.848 31.1407C107.48 30.1174 107.299 29.0296 107.299 27.882C107.299 26.7414 107.48 25.6605 107.848 24.6442C108.215 23.6244 108.737 22.7263 109.419 21.9581L109.419 21.9578C110.111 21.1799 110.941 20.5695 111.904 20.1276C112.883 19.6714 113.959 19.4487 115.123 19.4487H125.802V22.99H115.123C114.442 22.99 113.851 23.1209 113.336 23.3692L113.334 23.3699L113.333 23.3706C112.808 23.62 112.367 23.96 112.001 24.3927C111.639 24.8233 111.352 25.335 111.145 25.9361C110.945 26.535 110.843 27.1822 110.843 27.882C110.843 28.5814 110.945 29.2327 111.145 29.8397C111.352 30.4394 111.639 30.9547 112.001 31.3929C112.366 31.8175 112.807 32.154 113.331 32.4036C113.848 32.6461 114.441 32.774 115.123 32.774H125.802V36.3153ZM111.497 31.8178C111.077 31.3118 110.752 30.7227 110.52 30.0505C110.296 29.371 110.184 28.6482 110.184 27.882C110.184 27.1158 110.296 26.3966 110.52 25.7244C110.752 25.0521 111.077 24.4666 111.497 23.9679C111.924 23.4619 112.442 23.0644 113.049 22.7752C113.665 22.4789 114.356 22.3307 115.123 22.3307H125.142V20.108H115.123C114.045 20.108 113.064 20.314 112.181 20.726C111.298 21.1308 110.542 21.6874 109.912 22.3958C109.29 23.0969 108.809 23.9209 108.468 24.8678C108.128 25.8075 107.958 26.8122 107.958 27.882C107.958 28.959 108.128 29.971 108.468 30.9179C108.809 31.8648 109.29 32.6888 109.912 33.3899C110.542 34.0911 111.298 34.644 112.181 35.0488C113.064 35.4536 114.045 35.656 115.123 35.656H125.142V33.4333H115.123C114.356 33.4333 113.665 33.2887 113.049 32.9996C112.442 32.7105 111.924 32.3165 111.497 31.8178ZM142.039 22.7882V29.5517C142.039 30.4825 141.863 31.3662 141.508 32.1963L141.507 32.1974L141.507 32.1984C141.156 33.0107 140.672 33.7276 140.054 34.3443C139.443 34.9545 138.729 35.4345 137.917 35.7844C137.093 36.1395 136.215 36.3153 135.289 36.3153H134.063C133.138 36.3153 132.26 36.1395 131.435 35.7844L131.433 35.7833L131.43 35.7822C130.621 35.4257 129.906 34.9438 129.29 34.3365L129.287 34.3335L129.284 34.3304C128.675 33.714 128.195 32.9981 127.845 32.1876L127.845 32.1865L127.844 32.1855C127.49 31.3561 127.314 30.4761 127.314 29.5517V22.7882H130.858V29.5517C130.858 30.0002 130.942 30.4176 131.108 30.81C131.279 31.2049 131.507 31.5462 131.793 31.8392C132.088 32.1265 132.428 32.3548 132.816 32.5248C133.2 32.6897 133.613 32.774 134.063 32.774H135.289C135.74 32.774 136.153 32.6894 136.538 32.5241C136.934 32.3537 137.271 32.1259 137.557 31.8415C137.844 31.5481 138.073 31.2059 138.244 30.81C138.41 30.4176 138.495 30.0002 138.495 29.5517V22.7882H142.039ZM138.85 31.0696C138.647 31.5395 138.372 31.9515 138.025 32.3057C137.678 32.6526 137.269 32.9273 136.798 33.1297C136.328 33.3321 135.825 33.4333 135.289 33.4333H134.063C133.527 33.4333 133.024 33.3321 132.554 33.1297C132.091 32.9273 131.682 32.6526 131.327 32.3057C130.98 31.9515 130.705 31.5395 130.502 31.0696C130.3 30.5926 130.198 30.0866 130.198 29.5517V23.4475H127.973V29.5517C127.973 30.3902 128.132 31.1817 128.45 31.9262C128.769 32.6635 129.203 33.3104 129.753 33.867C130.31 34.4163 130.958 34.8536 131.696 35.1789C132.434 35.4969 133.223 35.656 134.063 35.656H135.289C136.129 35.656 136.918 35.4969 137.656 35.1789C138.394 34.8609 139.038 34.4272 139.588 33.8778C140.145 33.3212 140.583 32.6743 140.902 31.937C141.22 31.1925 141.379 30.3974 141.379 29.5517V23.4475H139.154V29.5517C139.154 30.0866 139.053 30.5926 138.85 31.0696ZM153.127 36.3153H149.583V26.2969H143.7V22.7882H159V26.2969H153.127V36.3153ZM150.243 25.6376V35.656H152.468V25.6376H158.341V23.4475H144.359V25.6376H150.243Z" fill="#F92424"/>
<path fill-rule="evenodd" clip-rule="evenodd" d="M26.0371 3.37152C26.0376 3.37251 26.038 3.3735 26.0385 3.37448C26.2739 3.87509 26.5024 4.38733 26.7242 4.91288C27.3229 4.30917 28.1297 3.51752 28.742 2.92877C29.3151 2.40156 30.0895 1.70803 30.6746 1.19246C29.7228 0.942993 28.4435 0.650283 27.4798 0.447382C26.5075 0.289385 25.2061 0.114756 24.2287 0C24.4755 0.399945 24.7223 0.821417 24.9674 1.26772C11.4929 5.0534 -2.2164 16.0162 0.301114 24.4812C0.435504 24.8249 0.626111 25.2369 0.803112 25.6195C0.882215 25.7905 0.958601 25.9556 1.02604 26.1061L1.58136 27.0921C1.65068 27.2283 1.72597 27.3621 1.80724 27.4932L1.58136 27.0921C-0.544732 22.9133 2.9328 16.3535 10.9822 10.5908C15.6008 7.28478 20.9392 4.80187 26.0371 3.37152Z" fill="#F92424"/>
<path fill-rule="evenodd" clip-rule="evenodd" d="M19.9653 12.1161C17.9478 13.1388 15.9814 14.3178 14.1394 15.6365C5.30502 21.9617 2.35982 29.3155 6.86855 32.8857L6.20793 32.3992C6.12268 32.326 6.03219 32.2487 5.93843 32.1686C5.49752 31.792 4.98435 31.3537 4.60457 30.9889C0.664403 27.1288 3.84042 19.806 12.6862 13.4745C14.6049 12.1009 16.6514 10.8736 18.7543 9.80933C18.7539 9.8087 18.7536 9.80807 18.7533 9.80744L18.7471 9.79549C18.4797 9.28229 18.214 8.77239 17.955 8.26904C18.9358 8.289 20.2441 8.3339 21.2231 8.38712C22.1869 8.47693 23.4696 8.61664 24.4282 8.74304C23.8499 9.46317 23.0892 10.4328 22.5331 11.1695C22.0044 11.9229 21.3118 12.9358 20.8087 13.7058C20.5312 13.1859 20.2554 12.6645 19.9812 12.1461L19.9653 12.1161ZM6.86855 32.8857C6.98925 32.9813 7.11529 33.0742 7.2467 33.1642L6.86855 32.8857Z" fill="#282828"/>
<path d="M30.1411 35.6559H27.9157V31.2105H15.9915V28.9986H27.9157V22.3306H19.937C19.1771 22.3306 18.4606 22.4788 17.7876 22.7751C17.1145 23.0643 16.5283 23.4618 16.029 23.9678C15.5296 24.4665 15.1316 25.052 14.8349 25.7243C14.5454 26.3965 14.4007 27.1157 14.4007 27.8819V35.6559H12.1753V27.8819C12.1753 27.1663 12.2658 26.4796 12.4467 25.8218C12.6348 25.1568 12.8954 24.5388 13.2283 23.9678C13.5684 23.3895 13.9737 22.8655 14.4441 22.3956C14.9217 21.9186 15.4464 21.5102 16.0181 21.1705C16.5971 20.8307 17.2159 20.5705 17.8744 20.3898C18.533 20.2019 19.2205 20.1079 19.937 20.1079H30.1411V35.6559Z" fill="#282828"/>
<path d="M47.5039 35.6559H44.4752L41.0015 32.3489H36.9909V30.1479H42.6515C42.9627 30.1479 43.2558 30.0865 43.5308 29.9636C43.8058 29.8407 44.0446 29.6781 44.2473 29.4757C44.4499 29.2661 44.6091 29.0239 44.7249 28.7493C44.8407 28.4746 44.8986 28.1855 44.8986 27.8819C44.8986 27.5711 44.8407 27.2819 44.7249 27.0145C44.6091 26.7398 44.4499 26.5013 44.2473 26.2989C44.0446 26.0965 43.8058 25.9375 43.5308 25.8218C43.2558 25.699 42.9627 25.6375 42.6515 25.6375H35.3349V35.6559H33.1095V23.4474H42.6515C43.2667 23.4474 43.8456 23.5666 44.3884 23.8052C44.9312 24.0365 45.4016 24.3545 45.7996 24.7593C46.2049 25.1568 46.5233 25.6267 46.7549 26.1688C46.9865 26.7037 47.1023 27.2747 47.1023 27.8819C47.1023 28.3806 47.0227 28.8613 46.8634 29.3239C46.7042 29.7793 46.4799 30.1985 46.1904 30.5816C45.9082 30.9575 45.5716 31.2828 45.1808 31.5574C44.79 31.8321 44.3631 32.0345 43.8999 32.1646L47.5039 35.6559Z" fill="#282828"/>
<path d="M64.4642 35.6559H61.4355L57.9617 32.3489H53.9512V30.1479H59.6118C59.9229 30.1479 60.216 30.0865 60.4911 29.9636C60.7661 29.8407 61.0049 29.6781 61.2075 29.4757C61.4101 29.2661 61.5694 29.0239 61.6852 28.7493C61.8009 28.4746 61.8588 28.1855 61.8588 27.8819C61.8588 27.5711 61.8009 27.2819 61.6852 27.0145C61.5694 26.7398 61.4101 26.5013 61.2075 26.2989C61.0049 26.0965 60.7661 25.9375 60.4911 25.8218C60.216 25.699 59.9229 25.6375 59.6118 25.6375H52.2952V35.6559H50.0698V23.4474H59.6118C60.2269 23.4474 60.8059 23.5666 61.3486 23.8052C61.8914 24.0365 62.3618 24.3545 62.7598 24.7593C63.1651 25.1568 63.4835 25.6267 63.7151 26.1688C63.9467 26.7037 64.0625 27.2747 64.0625 27.8819C64.0625 28.3806 63.9829 28.8613 63.8237 29.3239C63.6645 29.7793 63.4401 30.1985 63.1506 30.5816C62.8684 30.9575 62.5319 31.2828 62.1411 31.5574C61.7503 31.8321 61.3233 32.0345 60.8601 32.1646L64.4642 35.6559Z" fill="#282828"/>
<path d="M82.1054 29.5299C82.1054 30.3756 81.9715 31.1707 81.7037 31.9152C81.436 32.6525 81.0524 33.2995 80.5531 33.856C80.0609 34.4126 79.4675 34.8535 78.7728 35.1788C78.0853 35.4968 77.3181 35.6559 76.4714 35.6559H72.6068C71.7601 35.6559 70.9894 35.4968 70.2946 35.1788C69.5999 34.8535 69.0028 34.4126 68.5035 33.856C68.0114 33.2995 67.6314 32.6525 67.3637 31.9152C67.0959 31.1707 66.962 30.3756 66.962 29.5299C66.962 28.6914 67.0959 27.9036 67.3637 27.1663C67.6314 26.429 68.0114 25.7857 68.5035 25.2363C69.0028 24.6798 69.5999 24.2425 70.2946 23.9244C70.9894 23.6064 71.7601 23.4474 72.6068 23.4474H76.4714C77.3181 23.4474 78.0853 23.6064 78.7728 23.9244C79.4675 24.2425 80.0609 24.6798 80.5531 25.2363C81.0524 25.7857 81.436 26.429 81.7037 27.1663C81.9715 27.9036 82.1054 28.6914 82.1054 29.5299ZM79.88 29.5299C79.88 28.995 79.8004 28.4927 79.6412 28.0228C79.4892 27.5458 79.2649 27.1338 78.9682 26.7868C78.6787 26.4326 78.3241 26.1543 77.9043 25.9519C77.4846 25.7423 77.0069 25.6375 76.4714 25.6375H72.6068C72.0713 25.6375 71.5901 25.7423 71.1631 25.9519C70.7433 26.1543 70.3851 26.4326 70.0884 26.7868C69.7989 27.1338 69.5746 27.5458 69.4153 28.0228C69.2634 28.4927 69.1874 28.995 69.1874 29.5299C69.1874 30.0648 69.2634 30.5708 69.4153 31.0479C69.5746 31.5177 69.7989 31.9297 70.0884 32.2839C70.3851 32.6381 70.7433 32.92 71.1631 33.1296C71.5901 33.332 72.0713 33.4332 72.6068 33.4332H76.4714C77.0069 33.4332 77.4846 33.332 77.9043 33.1296C78.3241 32.92 78.6787 32.6381 78.9682 32.2839C79.2649 31.9297 79.4892 31.5177 79.6412 31.0479C79.8004 30.5708 79.88 30.0648 79.88 29.5299Z" fill="#282828"/>
<path d="M100.785 31.1888C100.785 31.8104 100.665 32.3923 100.427 32.9344C100.195 33.4765 99.8765 33.95 99.4713 34.3548C99.066 34.7523 98.5884 35.0704 98.0383 35.3089C97.4956 35.5402 96.913 35.6559 96.2906 35.6559C95.632 35.6559 95.0169 35.5185 94.4452 35.2438C93.8807 34.9619 93.3922 34.5825 92.9797 34.1054C92.5672 34.5825 92.0642 34.9619 91.4708 35.2438C90.8773 35.5185 90.2405 35.6559 89.5602 35.6559C88.9523 35.6559 88.377 35.5402 87.8342 35.3089C87.2914 35.0704 86.8138 34.7523 86.4013 34.3548C85.996 33.95 85.674 33.4765 85.4351 32.9344C85.2035 32.3923 85.0878 31.8104 85.0878 31.1888V23.4474H87.3131V31.1888C87.3131 31.5068 87.371 31.8032 87.4868 32.0779C87.6026 32.3526 87.7618 32.5911 87.9645 32.7935C88.1671 32.9886 88.4059 33.144 88.6809 33.2597C88.9559 33.3753 89.249 33.4332 89.5602 33.4332C89.8786 33.4332 90.1754 33.3753 90.4504 33.2597C90.7254 33.144 90.9642 32.9886 91.1668 32.7935C91.3767 32.5911 91.5395 32.3526 91.6553 32.0779C91.7711 31.8032 91.829 31.5068 91.829 31.1888V23.4474H94.0761V30.9286C94.0761 31.2755 94.134 31.6044 94.2498 31.9152C94.3656 32.2188 94.5212 32.4827 94.7166 32.7067C94.9192 32.9308 95.1544 33.1079 95.4222 33.238C95.6899 33.3681 95.9794 33.4332 96.2906 33.4332C96.609 33.4332 96.9058 33.3753 97.1808 33.2597C97.4558 33.144 97.6946 32.9886 97.8972 32.7935C98.1071 32.5911 98.2699 32.3526 98.3857 32.0779C98.5015 31.8032 98.5594 31.5068 98.5594 31.1888V23.4474H100.785V31.1888Z" fill="#282828"/>
<path fill-rule="evenodd" clip-rule="evenodd" d="M30.8003 36.3153H27.2563V31.8699H15.3321V28.3395H27.2563V22.99H19.9368C19.2653 22.99 18.6396 23.1204 18.0531 23.3786L18.0504 23.3798L18.0477 23.381C17.4504 23.6376 16.9358 23.9875 16.4981 24.431L16.4964 24.4327L16.4948 24.4344C16.0562 24.8724 15.7041 25.3883 15.4391 25.9878C15.1875 26.5731 15.0598 27.2022 15.0598 27.882V36.3153H11.5159V27.882C11.5159 27.1102 11.6135 26.3646 11.8109 25.6471L11.8115 25.6448L11.8122 25.6424C12.0147 24.9265 12.2965 24.2569 12.6586 23.6359L12.6592 23.6347L12.6599 23.6336C13.0281 23.0076 13.4677 22.439 13.978 21.9293C14.4938 21.4141 15.0617 20.9719 15.6812 20.6038L15.6828 20.6029L15.6843 20.6019C16.3131 20.233 16.9844 19.9507 17.6966 19.755C18.4157 19.5502 19.1632 19.4487 19.9368 19.4487H30.8003V36.3153ZM17.8743 20.3899C17.2157 20.5706 16.597 20.8308 16.018 21.1706C15.4463 21.5103 14.9216 21.9187 14.444 22.3958C13.9735 22.8656 13.5683 23.3896 13.2281 23.9679C12.8952 24.5389 12.6347 25.1569 12.4465 25.8219C12.2656 26.4797 12.1752 27.1664 12.1752 27.882V35.656H14.4005V27.882C14.4005 27.1158 14.5453 26.3966 14.8347 25.7244C15.1315 25.0521 15.5295 24.4666 16.0289 23.9679C16.5282 23.4619 17.1144 23.0644 17.7874 22.7752C18.4605 22.4789 19.1769 22.3307 19.9368 22.3307H27.9156V28.9988H15.9914V31.2106H27.9156V35.656H30.141V20.108H19.9368C19.2204 20.108 18.5328 20.202 17.8743 20.3899ZM49.1319 36.3153H44.2115L40.7377 33.0083H36.3315V29.4888H42.6514C42.873 29.4888 43.0742 29.4456 43.2617 29.3618C43.4653 29.2709 43.6351 29.1543 43.7771 29.0134C43.92 28.8646 44.0332 28.6928 44.1173 28.4933C44.1982 28.3012 44.2392 28.0993 44.2392 27.882C44.2392 27.6552 44.1974 27.4559 44.1198 27.2765L44.1185 27.2736L44.1173 27.2707C44.0332 27.0714 43.921 26.9051 43.7812 26.7655C43.6414 26.6258 43.4749 26.5137 43.2751 26.4297L43.2684 26.4268L43.2617 26.4239C43.0742 26.3401 42.873 26.2969 42.6514 26.2969H35.9941V36.3153H32.4501V22.7882H42.6514C43.3531 22.7882 44.0216 22.9245 44.6502 23.2002C45.2658 23.4631 45.8063 23.8272 46.2654 24.2929C46.7321 24.7519 47.097 25.2924 47.3603 25.9081C47.6288 26.5288 47.7614 27.189 47.7614 27.882C47.7614 28.4523 47.6701 29.0056 47.4867 29.5386L47.4862 29.5401L47.4856 29.5416C47.304 30.061 47.0474 30.5408 46.7167 30.9786C46.3924 31.4103 46.0059 31.7834 45.5598 32.0969C45.4057 32.2053 45.2466 32.3039 45.0827 32.3928L49.1319 36.3153ZM43.8998 32.1647C44.1368 32.0981 44.3644 32.0126 44.5825 31.9082C44.7905 31.8085 44.9899 31.6917 45.1807 31.5576C45.5715 31.2829 45.908 30.9576 46.1903 30.5817C46.4797 30.1986 46.7041 29.7794 46.8633 29.324C47.0225 28.8614 47.1021 28.3807 47.1021 27.882C47.1021 27.2748 46.9863 26.7038 46.7548 26.1689C46.5232 25.6268 46.2047 25.1569 45.7995 24.7594C45.4014 24.3546 44.931 24.0366 44.3883 23.8053C43.8455 23.5667 43.2665 23.4475 42.6514 23.4475H33.1094V35.656H35.3348V25.6376H42.6514C42.9626 25.6376 43.2557 25.6991 43.5307 25.8219C43.8057 25.9376 44.0445 26.0966 44.2471 26.299C44.4498 26.5014 44.609 26.7399 44.7248 27.0146C44.8406 27.282 44.8985 27.5712 44.8985 27.882C44.8985 28.1856 44.8406 28.4747 44.7248 28.7494C44.609 29.0241 44.4498 29.2662 44.2471 29.4758C44.0445 29.6782 43.8057 29.8408 43.5307 29.9637C43.2557 30.0866 42.9626 30.148 42.6514 30.148H36.9908V32.349H41.0013L44.4751 35.656H47.5038L43.8998 32.1647ZM66.0922 36.3153H61.1717L57.698 33.0083H53.2917V29.4888H59.6116C59.8333 29.4888 60.0344 29.4456 60.222 29.3618C60.4255 29.2708 60.5953 29.1543 60.7374 29.0134C60.8802 28.8646 60.9934 28.6927 61.0775 28.4933C61.1585 28.3012 61.1994 28.0993 61.1994 27.882C61.1994 27.6552 61.1577 27.4559 61.08 27.2765L61.0787 27.2736L61.0775 27.2707C60.9935 27.0714 60.8813 26.9051 60.7415 26.7655C60.6017 26.6258 60.4351 26.5137 60.2353 26.4297L60.2286 26.4268L60.222 26.4239C60.0344 26.3401 59.8333 26.2969 59.6116 26.2969H52.9543V36.3153H49.4104V22.7882H59.6116C60.3133 22.7882 60.9818 22.9245 61.6103 23.2002C62.226 23.463 62.7665 23.8271 63.2257 24.2929C63.6926 24.7521 64.0576 25.293 64.321 25.9091C64.5892 26.5295 64.7217 27.1894 64.7217 27.882C64.7217 28.4523 64.6304 29.0056 64.4469 29.5386L64.4464 29.5401L64.4459 29.5416C64.2644 30.0608 64.0079 30.5404 63.6774 30.978C63.353 31.4099 62.9664 31.7832 62.5201 32.0969C62.3659 32.2053 62.2069 32.3039 62.043 32.3928L66.0922 36.3153ZM60.86 32.1647C61.097 32.0981 61.3246 32.0126 61.5427 31.9082C61.7507 31.8085 61.9502 31.6917 62.1409 31.5576C62.5317 31.2829 62.8683 30.9576 63.1505 30.5817C63.44 30.1986 63.6643 29.7794 63.8235 29.324C63.9828 28.8614 64.0624 28.3807 64.0624 27.882C64.0624 27.2748 63.9466 26.7038 63.715 26.1689C63.4834 25.6268 63.165 25.1569 62.7597 24.7594C62.3617 24.3546 61.8913 24.0366 61.3485 23.8053C60.8057 23.5667 60.2268 23.4475 59.6116 23.4475H50.0697V35.656H52.295V25.6376H59.6116C59.9228 25.6376 60.2159 25.6991 60.4909 25.8219C60.7659 25.9376 61.0047 26.0966 61.2074 26.299C61.41 26.5014 61.5692 26.7399 61.685 27.0146C61.8008 27.282 61.8587 27.5712 61.8587 27.882C61.8587 28.1856 61.8008 28.4747 61.685 28.7494C61.5692 29.0241 61.41 29.2662 61.2074 29.4758C61.0047 29.6782 60.7659 29.8408 60.4909 29.9637C60.2159 30.0866 59.9228 30.148 59.6116 30.148H53.951V32.349H57.9616L61.4353 35.656H64.464L60.86 32.1647ZM82.324 32.1385L82.3233 32.1404C82.0284 32.9523 81.6029 33.6726 81.0453 34.2946C80.4918 34.9201 79.8251 35.4141 79.0522 35.776L79.0508 35.7766L79.0494 35.7773C78.2654 36.1399 77.4023 36.3153 76.4713 36.3153H72.6067C71.6756 36.3153 70.8099 36.1399 70.0201 35.7784L70.0175 35.7772L70.0149 35.776C69.2421 35.4142 68.5727 34.9206 68.0126 34.2964L68.011 34.2946L68.0094 34.2928C67.4595 33.6708 67.0383 32.9511 66.7438 32.1404L66.7431 32.1385C66.4479 31.3176 66.3026 30.4465 66.3026 29.53C66.3026 28.6201 66.4481 27.7556 66.7438 26.9413C67.0385 26.13 67.4605 25.4126 68.0123 24.7966L68.0126 24.7962C68.5737 24.1708 69.2449 23.6799 70.0201 23.3251C70.8099 22.9635 71.6756 22.7882 72.6067 22.7882H76.4713C77.4019 22.7882 78.2648 22.9634 79.0485 23.3257C79.8225 23.6803 80.4899 24.1708 81.0438 24.7963C81.6026 25.412 82.0284 26.1294 82.3233 26.9413C82.619 27.7556 82.7645 28.6201 82.7645 29.53C82.7645 30.4465 82.6192 31.3176 82.324 32.1385ZM80.5529 25.2365C80.0608 24.6799 79.4674 24.2426 78.7726 23.9245C78.0851 23.6065 77.318 23.4475 76.4713 23.4475H72.6067C71.76 23.4475 70.9892 23.6065 70.2945 23.9245C69.5997 24.2426 69.0027 24.6799 68.5033 25.2365C68.0112 25.7858 67.6313 26.4291 67.3635 27.1664C67.0957 27.9037 66.9619 28.6916 66.9619 29.53C66.9619 30.3757 67.0957 31.1708 67.3635 31.9154C67.6313 32.6526 68.0112 33.2996 68.5033 33.8561C69.0027 34.4127 69.5997 34.8536 70.2945 35.1789C70.9892 35.4969 71.76 35.656 72.6067 35.656H76.4713C77.318 35.656 78.0851 35.4969 78.7726 35.1789C79.4674 34.8536 80.0608 34.4127 80.5529 33.8561C81.0523 33.2996 81.4358 32.6526 81.7036 31.9154C81.9714 31.1708 82.1053 30.3757 82.1053 29.53C82.1053 28.6916 81.9714 27.9037 81.7036 27.1664C81.4358 26.4291 81.0523 25.7858 80.5529 25.2365ZM79.0147 28.2288L79.0129 28.2231C78.885 27.8217 78.7012 27.4893 78.467 27.2154L78.4622 27.2098L78.4576 27.2041C78.2302 26.9259 77.9526 26.7073 77.6178 26.5459L77.6137 26.5439L77.6096 26.5419C77.2935 26.384 76.9191 26.2969 76.4713 26.2969H72.6067C72.1591 26.2969 71.7792 26.3839 71.4535 26.5439L71.4514 26.5449L71.4493 26.5459C71.1131 26.708 70.8297 26.9285 70.5936 27.2103C70.3634 27.4865 70.1774 27.8228 70.0415 28.2288C69.9131 28.6271 69.8465 29.0595 69.8465 29.53C69.8465 29.9994 69.9128 30.4357 70.0416 30.8421C70.1769 31.2395 70.363 31.5776 70.5961 31.8636C70.8319 32.1442 71.1152 32.3679 71.4513 32.5368C71.7776 32.6903 72.1585 32.774 72.6067 32.774H76.4713C76.9206 32.774 77.2967 32.6899 77.6139 32.5378C77.9505 32.3689 78.2295 32.1458 78.4576 31.8668L78.4601 31.8637L78.4626 31.8606C78.7013 31.5758 78.8861 31.2399 79.0138 30.8451L79.0147 30.8422L79.0157 30.8393C79.1511 30.4336 79.2206 29.9985 79.2206 29.53C79.2206 29.0615 79.151 28.6311 79.0167 28.2345L79.0147 28.2288ZM77.9042 33.1297C77.4844 33.3321 77.0068 33.4333 76.4713 33.4333H72.6067C72.0712 33.4333 71.5899 33.3321 71.1629 33.1297C70.7432 32.9201 70.385 32.6382 70.0882 32.284C69.7988 31.9298 69.5744 31.5178 69.4152 31.048C69.2632 30.5709 69.1872 30.0649 69.1872 29.53C69.1872 28.9951 69.2632 28.4928 69.4152 28.0229C69.5744 27.5459 69.7988 27.1339 70.0882 26.7869C70.385 26.4327 70.7432 26.1544 71.1629 25.9521C71.5899 25.7424 72.0712 25.6376 72.6067 25.6376H76.4713C77.0068 25.6376 77.4844 25.7424 77.9042 25.9521C78.3239 26.1544 78.6786 26.4327 78.968 26.7869C79.2647 27.1339 79.4891 27.5459 79.6411 28.0229C79.8003 28.4928 79.8799 28.9951 79.8799 29.53C79.8799 30.0649 79.8003 30.5709 79.6411 31.048C79.4891 31.5178 79.2647 31.9298 78.968 32.284C78.6786 32.6382 78.3239 32.9201 77.9042 33.1297ZM99.9349 34.8235L99.9328 34.8255C99.4667 35.2828 98.9204 35.645 98.3005 35.9139L98.2986 35.9147L98.2967 35.9155C97.6677 36.1835 96.9967 36.3153 96.2905 36.3153C95.537 36.3153 94.8238 36.1574 94.1595 35.8382L94.155 35.836L94.1505 35.8338C93.7213 35.6195 93.3298 35.3548 92.9772 35.0408C92.6137 35.3588 92.205 35.625 91.7535 35.8395L91.7506 35.8409L91.7476 35.8423C91.0638 36.1587 90.332 36.3153 89.5601 36.3153C88.8661 36.3153 88.2026 36.1827 87.5756 35.9155L87.5722 35.9141L87.5688 35.9126C86.9574 35.6439 86.4141 35.283 85.9436 34.8296L85.9394 34.8255L85.9352 34.8214C85.4701 34.3568 85.1023 33.8147 84.8317 33.2003L84.8302 33.1969L84.8287 33.1935C84.5603 32.5651 84.4283 31.8946 84.4283 31.1889V22.7882H87.9723V31.1889C87.9723 31.4249 88.0148 31.6336 88.0942 31.8219C88.1774 32.0192 88.2881 32.1841 88.426 32.3229C88.5658 32.4565 88.7337 32.5669 88.9364 32.6521C89.127 32.7322 89.3328 32.774 89.5601 32.774C89.7967 32.774 90.0059 32.7315 90.1946 32.6521C90.3994 32.566 90.5687 32.4542 90.7093 32.3187C90.8534 32.1797 90.9658 32.0161 91.0477 31.8219C91.1271 31.6336 91.1696 31.425 91.1696 31.1889V22.7882H94.7352V30.9287C94.7352 31.1998 94.78 31.4497 94.8666 31.6828C94.9562 31.9172 95.0718 32.1101 95.2094 32.269C95.3552 32.4292 95.5213 32.5533 95.7102 32.6451C95.8841 32.7296 96.0745 32.774 96.2905 32.774C96.5271 32.774 96.7363 32.7315 96.925 32.6521C97.1298 32.566 97.2991 32.4542 97.4397 32.3187C97.5838 32.1797 97.6962 32.0161 97.7781 31.8219C97.8575 31.6336 97.9 31.425 97.9 31.1889V22.7882H101.444V31.1889C101.444 31.8962 101.308 32.568 101.031 33.197C100.768 33.8129 100.403 34.3561 99.937 34.8214L99.9349 34.8235ZM100.426 32.9345C100.665 32.3924 100.785 31.8105 100.785 31.1889V23.4475H98.5593V31.1889C98.5593 31.507 98.5014 31.8033 98.3856 32.078C98.2698 32.3527 98.107 32.5912 97.8971 32.7936C97.6945 32.9887 97.4556 33.1442 97.1806 33.2598C96.9056 33.3755 96.6089 33.4333 96.2905 33.4333C95.9793 33.4333 95.6898 33.3682 95.422 33.2381C95.1543 33.108 94.9191 32.9309 94.7164 32.7068C94.521 32.4828 94.3654 32.2189 94.2496 31.9154C94.1339 31.6045 94.076 31.2757 94.076 30.9287V23.4475H91.8289V31.1889C91.8289 31.507 91.771 31.8033 91.6552 32.078C91.5394 32.3527 91.3766 32.5912 91.1667 32.7936C90.9641 32.9887 90.7252 33.1442 90.4502 33.2598C90.1752 33.3755 89.8785 33.4333 89.5601 33.4333C89.2489 33.4333 88.9558 33.3755 88.6808 33.2598C88.4058 33.1442 88.167 32.9887 87.9643 32.7936C87.7617 32.5912 87.6025 32.3527 87.4867 32.078C87.3709 31.8033 87.313 31.507 87.313 31.1889V23.4475H85.0876V31.1889C85.0876 31.8105 85.2034 32.3924 85.435 32.9345C85.6738 33.4767 85.9959 33.9501 86.4011 34.3549C86.8136 34.7524 87.2913 35.0705 87.8341 35.309C88.3768 35.5403 88.9522 35.656 89.5601 35.656C90.2404 35.656 90.8772 35.5186 91.4706 35.244C91.8557 35.061 92.2027 34.837 92.5116 34.572C92.6787 34.4285 92.8347 34.273 92.9796 34.1055C93.1253 34.274 93.2805 34.4304 93.4452 34.5746C93.7467 34.8385 94.08 35.0616 94.445 35.244C95.0168 35.5186 95.6319 35.656 96.2905 35.656C96.9128 35.656 97.4954 35.5403 98.0382 35.309C98.5882 35.0705 99.0659 34.7524 99.4711 34.3549C99.8764 33.9501 100.195 33.4767 100.426 32.9345Z" fill="#282828"/>
<path d="M69.0151 11.6757H70.9V12.8024H69.0151V11.6757ZM70.6683 8.97998H72.0688V15.5507H70.6683V8.97998ZM68.0885 14.8136H69.2784V15.0453C69.2784 16.8354 67.9726 18.2885 65.5823 18.6887L65.0453 17.5936C67.1092 17.2777 68.0885 16.1509 68.0885 15.0453V14.8136ZM68.2885 14.8136H69.4784V15.0453C69.4784 16.1404 70.4472 17.2671 72.5216 17.583L71.9635 18.6887C69.5837 18.2885 68.2885 16.8354 68.2885 15.0453V14.8136ZM67.5725 9.62231H69.0256C69.0256 12.3601 67.8147 14.1924 64.603 15.2243L64.0449 14.1397C66.7301 13.2973 67.5725 11.9705 67.5725 10.1909V9.62231ZM64.5609 9.62231H68.4781V10.7385H64.5609V9.62231ZM67.741 11.4967V12.4549L64.2661 12.7076L64.066 11.623L67.741 11.4967Z" fill="#F92424"/>
<path d="M53.9536 14.287H55.3541V16.909H53.9536V14.287ZM57.0178 14.2975H58.4078V16.9195H57.0178V14.2975ZM51.7949 16.5299H60.6191V17.6671H51.7949V16.5299ZM52.4688 9.74854H59.8925V10.8647H52.4688V9.74854ZM52.511 13.6025H59.8609V14.7082H52.511V13.6025ZM53.7956 10.6752H55.1961V13.7605H53.7956V10.6752ZM57.1758 10.6752H58.5657V13.7605H57.1758V10.6752Z" fill="#282828"/>
<path d="M44.2562 9.31694H45.3935V9.93821C45.3935 11.7915 44.53 13.3921 42.6451 13.9818L41.9712 12.8656C43.5823 12.3812 44.2562 11.1913 44.2562 9.93821V9.31694ZM44.5405 9.31694H45.6672V9.90663C45.6672 11.0965 46.3201 12.2022 47.8786 12.655L47.173 13.7396C45.3619 13.1815 44.5405 11.6862 44.5405 9.90663V9.31694ZM48.3735 8.97998H49.774V13.9818H48.3735V8.97998ZM49.2053 10.8754H51.0586V12.0232H49.2053V10.8754ZM43.3296 14.3608H49.774V16.9934H44.7406V18.1832H43.3506V15.9825H48.3945V15.4349H43.3296V14.3608ZM43.3506 17.583H50.0583V18.6676H43.3506V17.583Z" fill="#282828"/>
<path d="M34.6639 14.7504H36.0644V16.33H34.6639V14.7504ZM38.7601 8.97998H40.1711V18.7308H38.7601V8.97998ZM39.6762 12.9393H41.3926V14.0976H39.6762V12.9393ZM32.4737 17.1092L32.3052 15.9825C33.99 15.9825 36.3066 15.9719 38.2757 15.6982L38.381 16.709C36.3277 17.1092 34.1163 17.1092 32.4737 17.1092ZM32.4842 10.054H38.2231V11.1492H32.4842V10.054ZM35.3694 11.5388C36.7594 11.5388 37.7492 12.2759 37.7492 13.3605C37.7492 14.4556 36.7594 15.1927 35.3694 15.1927C33.9689 15.1927 32.9896 14.4556 32.9896 13.3605C32.9896 12.2759 33.9689 11.5388 35.3694 11.5388ZM35.3694 12.5918C34.7271 12.5918 34.3164 12.8656 34.3164 13.3605C34.3164 13.8659 34.7271 14.1397 35.3694 14.1397C36.0012 14.1397 36.4224 13.8659 36.4224 13.3605C36.4224 12.8656 36.0012 12.5918 35.3694 12.5918ZM34.6639 9.03263H36.0644V10.8754H34.6639V9.03263Z" fill="#282828"/>
</svg>
